<?xml version="1.0" standalone="no"?>
<!DOCTYPE svg PUBLIC "-//W3C//DTD SVG 20010904//EN"
 "http://www.w3.org/TR/2001/REC-SVG-20010904/DTD/svg10.dtd">
<svg version="1.0" xmlns="http://www.w3.org/2000/svg"
 width="32.000000pt" height="32.000000pt" viewBox="0 0 32.000000 32.000000"
 preserveAspectRatio="xMidYMid meet">
<metadata>
Created by potrace 1.16, written by Peter Selinger 2001-2019
</metadata>
<g transform="translate(0.000000,32.000000) scale(0.100000,-0.100000)"
fill="#000000" stroke="none">
<path d="M4 307 c-2 -7 -3 -78 -2 -157 l3 -145 155 0 155 0 0 155 0 155 -153
3 c-119 2 -154 0 -158 -11z m159 -110 c24 -28 27 -29 27 -10 0 25 24 47 44 40
19 -8 31 -73 20 -106 -6 -15 -18 -27 -31 -29 -18 -3 -24 4 -31 30 l-9 33 -13
-26 c-35 -74 -140 -51 -140 31 0 23 7 43 18 52 40 35 74 31 115 -15z"/>
</g>
</svg>
