<?xml version="1.0" encoding="UTF-8"?>
<svg xmlns="http://www.w3.org/2000/svg" xmlns:xlink="http://www.w3.org/1999/xlink" width="24pt" height="24pt" viewBox="0 0 24 24" version="1.1">
<g id="surface1">
<path style=" stroke:none;fill-rule:nonzero;fill:rgb(0%,0%,0%);fill-opacity:0.45;" d="M 23.699219 8.894531 L 0.640625 0.03125 C 0.472656 -0.03125 0.277344 0.00390625 0.144531 0.136719 L 0.136719 0.148438 C 0.0078125 0.277344 -0.0351562 0.46875 0.03125 0.644531 L 8.894531 23.703125 C 8.960938 23.878906 9.132812 23.996094 9.320312 24 C 9.507812 24 9.683594 23.886719 9.753906 23.710938 L 12.570312 16.945312 L 16.664062 21.039062 C 16.929688 21.304688 17.355469 21.304688 17.621094 21.039062 C 18.5625 20.097656 20.09375 18.566406 21.035156 17.625 C 21.300781 17.359375 21.300781 16.933594 21.035156 16.667969 L 16.945312 12.574219 L 23.710938 9.757812 C 23.886719 9.6875 24 9.511719 24 9.324219 C 23.992188 9.132812 23.875 8.964844 23.699219 8.894531 Z M 23.699219 8.894531 "/>
</g>
</svg>
